<?xml version="1.0" standalone="no"?>
<!DOCTYPE svg PUBLIC "-//W3C//DTD SVG 20010904//EN"
 "http://www.w3.org/TR/2001/REC-SVG-20010904/DTD/svg10.dtd">
<svg version="1.0" xmlns="http://www.w3.org/2000/svg"
 width="913.000000pt" height="913.000000pt" viewBox="0 0 913.000000 913.000000"
 preserveAspectRatio="xMidYMid meet">
<metadata>
Created by potrace 1.11, written by Peter Selinger 2001-2013
</metadata>
<g transform="translate(0.000000,913.000000) scale(0.100000,-0.100000)"
fill="#000000" stroke="none">
<path d="M5093 9116 c-133 -47 -208 -194 -164 -322 37 -110 131 -178 246 -177
210 0 326 230 205 406 -24 35 -79 77 -120 90 -41 14 -133 16 -167 3z"/>
<path d="M3440 8964 c-104 -12 -142 -18 -190 -31 -14 -3 -31 -7 -37 -9 -95
-19 -293 -103 -411 -173 -543 -325 -830 -939 -603 -1287 43 -66 104 -130 197
-206 l63 -51 -46 -51 c-257 -285 -345 -660 -226 -966 66 -168 176 -298 353
-414 52 -35 127 -84 165 -109 160 -105 199 -154 329 -413 86 -171 155 -266
234 -325 18 -13 42 -32 53 -41 40 -32 185 -97 264 -117 105 -26 177 -34 308
-35 l108 -1 59 -155 c31 -85 68 -177 80 -205 29 -68 30 -54 -10 -220 -12 -49
-24 -101 -27 -115 -2 -14 -8 -43 -13 -65 -18 -79 -59 -332 -70 -430 -7 -55
-13 -109 -14 -120 -4 -24 -2 -24 -101 -3 -44 10 -91 20 -105 22 -14 3 -94 19
-179 35 -85 17 -171 33 -191 36 -20 3 -45 7 -57 9 -11 3 -38 7 -59 10 -22 4
-66 11 -99 17 -102 17 -108 18 -165 25 -30 3 -62 8 -70 9 -9 2 -43 6 -75 10
-33 4 -71 9 -85 11 -14 2 -50 6 -80 9 -30 3 -64 8 -75 10 -11 2 -63 7 -115 11
-52 3 -106 8 -120 10 -54 7 -342 18 -475 18 -135 0 -416 -11 -452 -18 -10 -2
-47 -7 -83 -11 -36 -4 -72 -9 -82 -10 -9 -2 -38 -7 -65 -10 -26 -4 -75 -14
-108 -22 -33 -8 -73 -16 -90 -19 -105 -18 -370 -126 -485 -196 -183 -113 -333
-287 -399 -464 -46 -121 -61 -218 -55 -354 3 -69 5 -152 3 -185 -13 -245 0
-362 58 -530 217 -625 894 -1124 1614 -1189 9 0 35 -25 57 -55 87 -116 192
-203 276 -231 55 -18 146 -7 211 24 61 30 73 42 90 92 16 46 6 91 -33 154
l-30 49 41 7 c140 23 391 113 583 210 l124 62 228 2 c125 1 414 3 642 5 801 6
781 5 830 25 112 44 113 156 2 264 -63 60 -145 76 -216 40 -16 -8 -30 -14 -30
-14 -1 0 1 21 3 46 l3 47 106 -7 c58 -4 108 -8 111 -10 3 -2 29 -7 56 -10 201
-27 492 -139 747 -287 89 -52 460 -299 478 -319 17 -18 293 -207 359 -245 329
-192 716 -199 1076 -20 213 106 434 301 568 502 l62 93 75 -5 c257 -20 472 4
605 66 57 27 112 83 140 142 38 81 19 152 -52 194 -38 22 -51 25 -91 18 -26
-4 -60 -9 -76 -11 -36 -5 -66 19 -66 53 0 14 12 45 26 69 23 39 26 53 21 103
-10 114 -91 194 -199 195 -71 1 -102 -20 -141 -95 -29 -56 -53 -86 -61 -78 -6
6 -10 181 -7 344 1 66 0 129 -2 140 -3 11 -8 40 -12 65 -50 315 -284 570 -631
688 -34 12 -75 24 -90 27 -106 20 -163 24 -189 15 -17 -6 -87 -13 -255 -25
-119 -8 -220 -16 -250 -20 -19 -2 -71 -6 -115 -10 -44 -3 -100 -8 -125 -10
-25 -2 -85 -7 -135 -10 -49 -3 -108 -8 -130 -10 -22 -2 -74 -7 -115 -10 -41
-3 -95 -8 -120 -10 -25 -3 -81 -7 -125 -10 -44 -4 -96 -8 -115 -11 -25 -3 -99
17 -250 65 -417 135 -906 272 -1294 365 l-29 7 7 112 c4 62 9 130 11 152 8 78
26 230 31 258 10 63 25 154 38 227 9 54 59 290 78 370 11 47 21 93 23 103 2
10 6 26 9 35 3 9 7 30 10 45 3 15 12 51 20 80 8 29 17 65 20 80 3 15 12 52 20
81 14 48 20 55 58 69 24 9 79 35 123 57 71 36 81 39 90 24 183 -296 409 -464
683 -508 133 -21 263 -8 394 41 232 85 394 290 448 566 34 171 104 235 295
273 11 2 45 9 75 15 224 44 360 127 454 277 30 49 76 152 82 187 26 150 25
255 -6 376 -40 161 -124 302 -269 447 l-96 97 -1 185 c0 102 -4 203 -8 225
-73 396 -288 681 -586 779 -59 19 -163 37 -214 38 -53 1 -247 -12 -255 -16
-13 -8 -172 -20 -266 -20 -277 0 -450 97 -818 459 -79 78 -210 185 -295 242
-121 80 -116 77 -227 132 -277 138 -548 188 -835 155z"/>
<path d="M5784 8936 c-63 -63 -41 -158 42 -184 128 -39 202 142 83 204 -48 24
-87 18 -125 -20z"/>
<path d="M7198 7843 c-36 -6 -85 -54 -97 -98 -30 -109 86 -206 188 -156 47 22
74 62 77 114 5 93 -69 154 -168 140z"/>
<path d="M7490 6830 c-212 -38 -304 -311 -156 -463 49 -50 75 -66 137 -82 179
-48 353 92 345 277 -5 112 -62 198 -161 243 -56 26 -112 34 -165 25z"/>
<path d="M1950 5995 c-43 -14 -77 -62 -86 -120 -8 -59 17 -181 56 -263 67
-143 160 -243 282 -301 183 -87 321 -13 321 174 0 208 -144 393 -383 489 -42
17 -56 21 -127 29 -16 2 -44 -1 -63 -8z"/>
<path d="M3378 4759 c-73 -37 -84 -129 -23 -186 100 -94 245 36 169 151 -28
44 -96 60 -146 35z"/>
<path d="M4795 959 c-148 -19 -352 -109 -443 -198 -66 -63 -90 -103 -107 -176
-30 -130 59 -255 181 -255 21 0 73 11 115 24 150 48 320 64 443 41 135 -24
325 -111 451 -204 181 -135 278 -175 420 -176 81 0 95 3 143 29 136 76 163
216 77 402 -110 238 -344 409 -660 483 -155 36 -455 50 -620 30z"/>
</g>
</svg>
