<?xml version="1.0" standalone="no"?>
<!DOCTYPE svg PUBLIC "-//W3C//DTD SVG 20010904//EN"
 "http://www.w3.org/TR/2001/REC-SVG-20010904/DTD/svg10.dtd">
<svg version="1.0" xmlns="http://www.w3.org/2000/svg"
 width="200.000000pt" height="200.000000pt" viewBox="0 0 200.000000 200.000000"
 preserveAspectRatio="xMidYMid meet">
<metadata>
Created by potrace 1.11, written by Peter Selinger 2001-2013
</metadata>
<g transform="translate(0.000000,200.000000) scale(0.100000,-0.100000)"
fill="#000000" stroke="none">
<path d="M404 1866 c-141 -34 -235 -143 -281 -323 -15 -59 -18 -125 -18 -523
0 -250 4 -480 8 -509 20 -129 86 -257 161 -315 68 -52 123 -69 233 -72 112 -3
165 9 237 51 89 52 150 144 188 283 20 72 21 106 23 519 2 429 0 469 -30 608
-11 51 -63 148 -102 189 -20 21 -66 52 -100 69 -55 25 -77 30 -166 32 -58 2
-124 -2 -153 -9z m206 -216 c30 -16 59 -87 67 -162 9 -83 8 -961 -1 -1015 -20
-123 -80 -173 -181 -151 -68 15 -101 62 -113 163 -3 27 -6 266 -6 530 0 514 3
547 51 612 36 50 114 60 183 23z"/>
<path d="M1066 1860 c-2 -5 0 -1695 3 -1716 1 -6 44 -9 124 -8 67 1 125 2 128
3 4 0 7 171 7 378 0 208 1 387 1 398 1 19 8 20 154 20 l152 0 1 -393 c1 -216
4 -396 8 -400 4 -4 64 -7 132 -7 l124 -1 0 866 0 865 -124 0 c-68 0 -128 -3
-132 -7 -4 -5 -7 -168 -7 -363 l0 -355 -153 0 c-116 0 -154 3 -155 13 0 6 -1
169 -2 362 l-2 349 -128 1 c-71 0 -130 -2 -131 -5z"/>
</g>
</svg>
